# xmcd
#
# Track frame offsets:
#	150
#	18937
#	35483
#	49752
#	64339
#	79798
#	96724
#	116140
#	130472
#	147390
#	164169
#	178499
#	194302
#	212272
#	229361
#	248225
#	263403
#	279436
#	294458
#	317216
#	331940
#
# Disc length: 4582 seconds
#
# Revision: 1
# Processed by: cddbd v1.5.1PL2 Copyright (c) Steve Scherf et al.
# Submitted via: audiograbber 1.83.01
#
DISCID=4a11e415
DTITLE=V. A. - Que Te Vaya Bonito - Un Tributo A México
DYEAR=2005
DGENRE=Latin
TTITLE0=Los Delinquentes - La Bamba
TTITLE1=Bunbury - Aunque No Sea Conmigo
TTITLE2=José Mercé - El Rey
TTITLE3=Miguel Bosé - La Media Vuelta
TTITLE4=Falete - Se Me Olvidó Otra Vez
TTITLE5=Rosana - Si Dios Me Quita La Vida
TTITLE6=La Cabra Mecánica - La Adelita
TTITLE7=Las Ciudades - Maria Dolores Pradera Y Carmen
TTITLE8=Contrabando Y Tradición - Quique González
TTITLE9=Tres Veces Te Engañé - María Jiménez
TTITLE10=Elefantes - Sabor A Mi
TTITLE11=Los Secretos - Volver, Volver
TTITLE12=Fábula - La Llorona
TTITLE13=Clara Montes - Como Yo Te Amé
TTITLE14=María Bonita - Enrique Heredia "Negri"
TTITLE15=Belén Ariona - La Noche En La Que Te Fuiste
TTITLE16=Pasión Vega - Te Sigo Amando
TTITLE17=Pereza - En El Último Trago
TTITLE18=Revolver - Juan Charrasqueado
TTITLE19=Aute - Amanecí En Tus Brazos
TTITLE20=Iván Ferreiro - Pa'todo El Año
EXTD=
EXTT0=
EXTT1=
EXTT2=
EXTT3=
EXTT4=
EXTT5=
EXTT6=
EXTT7=
EXTT8=
EXTT9=
EXTT10=
EXTT11=
EXTT12=
EXTT13=
EXTT14=
EXTT15=
EXTT16=
EXTT17=
EXTT18=
EXTT19=
EXTT20=
PLAYORDER=
